<svg width="23" height="24" viewBox="0 0 23 24" fill="none" xmlns="http://www.w3.org/2000/svg">
<path d="M11.0072 21.75C5.5993 21.75 1.19644 17.15 1.19644 11.5C1.19644 5.85 5.5993 1.25 11.0072 1.25C16.415 1.25 20.8179 5.85 20.8179 11.5C20.8179 17.15 16.415 21.75 11.0072 21.75ZM11.0072 2.75C6.38416 2.75 2.63216 6.68 2.63216 11.5C2.63216 16.32 6.38416 20.25 11.0072 20.25C15.6302 20.25 19.3822 16.32 19.3822 11.5C19.3822 6.68 15.6302 2.75 11.0072 2.75Z" fill="#2F2F2F"/>
<path d="M21.0571 22.7499C20.8753 22.7499 20.6934 22.6799 20.5499 22.5299L18.6356 20.5299C18.358 20.2399 18.358 19.7599 18.6356 19.4699C18.9131 19.1799 19.3726 19.1799 19.6501 19.4699L21.5644 21.4699C21.842 21.7599 21.842 22.2399 21.5644 22.5299C21.4209 22.6799 21.239 22.7499 21.0571 22.7499Z" fill="#2F2F2F"/>
</svg>
